<svg width="200" height="200" viewBox="0 0 200 200" fill="none" xmlns="http://www.w3.org/2000/svg">
<path d="M100 200C44.8 200 0 155.2 0 100C0 44.8 44.8 0 100 0C155.2 0 200 44.8 200 100C200 155.2 155.04 200 100 200ZM100 11.36C51.04 11.36 11.36 51.2 11.36 100C11.36 148.8 51.2 188.64 100 188.64C148.8 188.64 188.64 148.8 188.64 100C188.64 51.2 148.8 11.36 100 11.36Z" fill="#6482AD"/>
<path d="M105.6 5.76016H94.2399V194.4H105.6V5.76016Z" fill="#6482AD"/>
<path d="M96.8886 102.287L21.1953 151.423L27.3808 160.951L103.074 111.816L96.8886 102.287Z" fill="#6482AD"/>
<path d="M103.058 102.124L96.8723 111.653L172.566 160.788L178.751 151.26L103.058 102.124Z" fill="#6482AD"/>
</svg>
