<svg width="200" height="200" viewBox="0 0 200 200" fill="none" xmlns="http://www.w3.org/2000/svg">
<path d="M100 200C44.8 200 0 155.2 0 100C0 44.8004 44.8 0.000366211 100 0.000366211C155.2 0.000366211 200 44.8004 200 100C200 155.2 155.04 200 100 200ZM100 11.3604C51.04 11.3604 11.36 51.2004 11.36 100C11.36 148.8 51.2 188.64 100 188.64C148.8 188.64 188.64 148.8 188.64 100C188.64 51.2004 148.8 11.3604 100 11.3604Z" fill="black"/>
<path d="M105.6 5.76052H94.2399V194.401H105.6V5.76052Z" fill="black"/>
<path d="M96.8886 102.287L21.1953 151.423L27.3808 160.952L103.074 111.816L96.8886 102.287Z" fill="black"/>
<path d="M103.058 102.124L96.8723 111.653L172.566 160.789L178.751 151.26L103.058 102.124Z" fill="black"/>
</svg>
