<svg width="280" height="280" viewBox="0 0 280 280" fill="none" xmlns="http://www.w3.org/2000/svg">
<rect y="0.000366211" width="280" height="280" rx="32" fill="#C6BEAC"/>
<g clip-path="url(#clip0_501_1860)">
<path d="M140 240C84.8 240 40 195.2 40 140C40 84.8004 84.8 40.0004 140 40.0004C195.2 40.0004 240 84.8004 240 140C240 195.2 195.04 240 140 240ZM140 51.3604C91.04 51.3604 51.36 91.2004 51.36 140C51.36 188.8 91.2 228.64 140 228.64C188.8 228.64 228.64 188.8 228.64 140C228.64 91.2004 188.8 51.3604 140 51.3604Z" fill="black"/>
<path d="M145.6 45.7605H134.24V234.401H145.6V45.7605Z" fill="black"/>
<path d="M136.889 142.287L61.1953 191.423L67.3808 200.952L143.074 151.816L136.889 142.287Z" fill="black"/>
<path d="M143.058 142.124L136.872 151.653L212.566 200.789L218.751 191.26L143.058 142.124Z" fill="black"/>
</g>
<defs>
<clipPath id="clip0_501_1860">
<rect width="200" height="200" fill="white" transform="translate(40 40.0004)"/>
</clipPath>
</defs>
</svg>
